<?xml version="1.0" encoding="UTF-8"?><svg id="Layer_2" xmlns="http://www.w3.org/2000/svg" viewBox="0 0 373.55 373.55"><defs><style>.cls-1{fill:#888280;}.cls-2{fill:#fffce8;}</style></defs><g id="Layer_1-2"><circle class="cls-1" cx="186.78" cy="186.78" r="186.78"/><path class="cls-2" d="M324.33,155c-9.7-15.18-28.66-33.77-58.14-42.95-22.69-7.46-47.91-7.17-70.48.9-41.64,14.25-73.26,48.1-93.09,86.43l-36.53-65.18h-22.26l41.39,72.55v54.04h19.48v-55.8c.92-1.78,1.86-3.55,2.83-5.31l2.13-3.78c8.95-15.59,19.68-30.15,32.58-42.58,38.9-39.17,101.43-55.85,148-20.32,1.71,1.28,3.36,2.64,4.99,4.02,5.81,5.55,11.15,12.86,13.89,19.17,2.9,6.71,4.09,14.75,4.09,23.91,0,12.87-2.03,25.45-6.09,37.73-4.06,12.29-9.88,22.4-17.47,30.34-7.6,7.94-16.38,11.91-26.35,11.91-7.19,0-13.39-1.85-18.61-5.56-5.22-3.71-9.19-8.96-11.91-15.74-2.73-6.78-4.09-14.75-4.09-23.91,0-12.75,2.06-25.33,6.17-37.74,4.11-12.4,9.97-22.55,17.56-30.43,4.55-4.72,9.54-8,14.94-9.9,0,0,3.2-1.23,10.41-2.25,3.18-.45-1.29-2.79-10.41-1.58-8.91,1.4-17.21,4.51-24.85,9.38-10.72,6.84-19.1,16.08-25.13,27.74-6.03,11.65-9.04,24.43-9.04,38.34,0,10.9,2.32,20.46,6.96,28.69,4.64,8.23,11.13,14.58,19.48,19.04,8.35,4.46,17.85,6.69,28.52,6.69,13.33,0,25.36-3.48,36.08-10.43,10.72-6.96,19.13-16.26,25.22-27.91,6.09-11.65,9.13-24.32,9.13-38,0-11.01-4.31-23.6-9.38-31.54Z"/></g></svg>