<?xml version="1.0" encoding="UTF-8"?><svg id="Layer_2" xmlns="http://www.w3.org/2000/svg" viewBox="0 0 1356.4 415.65"><defs><style>.cls-1{fill:#888280;}</style></defs><g id="Layer_1-2"><polygon class="cls-1" points="141.69 324.6 132.15 324.6 132.15 351.19 116.31 351.19 116.31 359.78 132.15 359.78 132.15 414.3 141.69 414.3 141.69 359.78 157.53 359.78 157.53 351.19 141.69 351.19 141.69 324.6"/><path class="cls-1" d="M233.27,351.52c-2.6-1.12-5.46-1.68-8.6-1.68-6.8,0-12.15,2.33-16.05,6.98-.72.86-1.36,1.81-1.95,2.79v-8.43h-9.54v63.11h9.54v-36.8c0-6.18,1.52-10.83,4.57-13.97,3.04-3.13,6.98-4.7,11.82-4.7,2.33,0,4.41.36,6.24,1.07,1.83.72,3.47,1.88,4.9,3.49l6.31-6.58c-2.24-2.42-4.66-4.19-7.25-5.31Z"/><path class="cls-1" d="M325.12,361.61c-.18-.28-.35-.55-.54-.82-2.42-3.45-5.53-6.13-9.33-8.06-3.81-1.92-8.12-2.89-12.96-2.89-5.91,0-11.21,1.46-15.91,4.37-4.7,2.91-8.44,6.85-11.21,11.82-2.78,4.97-4.16,10.59-4.16,16.85s1.39,11.73,4.16,16.65c2.77,4.92,6.53,8.84,11.28,11.75,4.74,2.91,10.07,4.36,15.98,4.36,4.83,0,9.13-.96,12.89-2.89s6.82-4.63,9.2-8.12c.21-.31.41-.63.6-.95v10.62h9.54v-63.11h-9.54v10.42ZM319.75,400.07c-3.94,4.39-9.22,6.58-15.85,6.58-4.39,0-8.33-1.03-11.82-3.09-3.49-2.06-6.25-4.88-8.26-8.46-2.01-3.58-3.02-7.7-3.02-12.36s1.01-8.77,3.02-12.35,4.74-6.4,8.19-8.46c3.44-2.06,7.36-3.09,11.75-3.09s8.23,1.01,11.55,3.02c3.31,2.01,5.86,4.81,7.66,8.39,1.79,3.58,2.69,7.74,2.69,12.49,0,7.16-1.97,12.94-5.91,17.32Z"/><polygon class="cls-1" points="405.38 399.63 383.81 351.19 373.2 351.19 402.48 414.3 407.98 414.3 437.39 351.19 427.18 351.19 405.38 399.63"/><path class="cls-1" d="M516.96,353.74c-4.43-2.59-9.56-3.9-15.38-3.9s-11.6,1.43-16.52,4.3c-4.93,2.87-8.8,6.78-11.62,11.75-2.82,4.97-4.23,10.54-4.23,16.72s1.45,11.91,4.36,16.92c2.91,5.01,6.87,8.95,11.89,11.82,5.01,2.87,10.65,4.3,16.92,4.3,5.01,0,9.71-.94,14.1-2.82,4.38-1.88,8.06-4.61,11.01-8.19l-6.18-6.18c-2.24,2.78-4.97,4.86-8.19,6.24-3.22,1.39-6.72,2.08-10.48,2.08-4.75,0-8.93-1.03-12.56-3.09-3.63-2.06-6.45-4.92-8.46-8.6-1.45-2.65-2.38-5.61-2.78-8.86h51.73c.27-1.25.45-2.35.54-3.29.09-.94.13-1.77.13-2.48,0-6-1.28-11.3-3.83-15.91-2.55-4.61-6.04-8.21-10.47-10.81ZM489.49,361.59c3.4-2.01,7.39-3.02,11.95-3.02,4.3,0,7.99.94,11.08,2.82,3.09,1.88,5.46,4.5,7.12,7.86,1.29,2.61,2.04,5.59,2.27,8.93h-43.02c.41-3.04,1.27-5.8,2.61-8.26,1.92-3.54,4.59-6.31,7.99-8.33Z"/><rect class="cls-1" x="572.35" y="319.23" width="9.54" height="95.08"/><path class="cls-1" d="M731.88,354.21c-4.66-2.91-9.89-4.37-15.71-4.37-4.66,0-8.93.94-12.83,2.82-3.89,1.88-7.09,4.55-9.6,7.99-.28.39-.55.79-.81,1.19v-42.62h-9.54v95.08h9.54v-10.84c.24.37.48.75.74,1.11,2.46,3.45,5.62,6.16,9.47,8.12,3.85,1.97,8.19,2.95,13.03,2.95,5.82,0,11.08-1.45,15.78-4.36,4.7-2.91,8.39-6.82,11.08-11.75s4.03-10.48,4.03-16.65-1.37-11.89-4.1-16.85c-2.73-4.97-6.42-8.91-11.08-11.82ZM734.3,395.17c-1.97,3.63-4.66,6.45-8.06,8.46-3.4,2.01-7.34,3.02-11.82,3.02s-8.1-1.01-11.42-3.02c-3.31-2.01-5.91-4.83-7.79-8.46s-2.82-7.77-2.82-12.42.94-8.8,2.82-12.42,4.5-6.45,7.86-8.46,7.23-3.02,11.62-3.02,8.26,1.01,11.62,3.02c3.36,2.01,6.02,4.83,7.99,8.46,1.97,3.63,2.95,7.77,2.95,12.42s-.99,8.8-2.95,12.42Z"/><path class="cls-1" d="M830.85,387.44c0,5.82-1.52,10.48-4.57,13.97-3.05,3.49-7.21,5.24-12.49,5.24-3.4,0-6.4-.81-9-2.42-2.6-1.61-4.59-3.85-5.98-6.71-1.39-2.86-2.08-6.22-2.08-10.07v-36.26h-9.54v36.66c0,5.46,1.12,10.28,3.36,14.44,2.24,4.16,5.39,7.43,9.47,9.8,4.07,2.37,8.66,3.56,13.76,3.56s9.91-1.16,13.9-3.49c3.98-2.33,7.09-5.59,9.33-9.81,2.24-4.21,3.36-9.04,3.36-14.5v-36.66h-9.54v36.26Z"/><path class="cls-1" d="M920.83,351.52c-2.6-1.12-5.46-1.68-8.6-1.68-6.8,0-12.15,2.33-16.05,6.98-.72.86-1.36,1.81-1.95,2.79v-8.43h-9.54v63.11h9.54v-36.8c0-6.18,1.52-10.83,4.57-13.97,3.04-3.13,6.98-4.7,11.82-4.7,2.33,0,4.41.36,6.24,1.07,1.83.72,3.47,1.88,4.9,3.49l6.31-6.58c-2.24-2.42-4.66-4.19-7.25-5.31Z"/><path class="cls-1" d="M1006.3,353.74c-4.43-2.59-9.56-3.9-15.38-3.9s-11.6,1.43-16.52,4.3c-4.93,2.87-8.8,6.78-11.62,11.75-2.82,4.97-4.23,10.54-4.23,16.72s1.45,11.91,4.36,16.92c2.91,5.01,6.87,8.95,11.89,11.82,5.01,2.87,10.65,4.3,16.92,4.3,5.01,0,9.71-.94,14.1-2.82,4.38-1.88,8.06-4.61,11.01-8.19l-6.18-6.18c-2.24,2.78-4.97,4.86-8.19,6.24-3.22,1.39-6.72,2.08-10.48,2.08-4.75,0-8.93-1.03-12.56-3.09-3.63-2.06-6.45-4.92-8.46-8.6-1.45-2.65-2.38-5.61-2.78-8.86h51.73c.27-1.25.45-2.35.54-3.29.09-.94.13-1.77.13-2.48,0-6-1.28-11.3-3.83-15.91-2.55-4.61-6.04-8.21-10.47-10.81ZM978.84,361.59c3.4-2.01,7.39-3.02,11.95-3.02,4.3,0,7.99.94,11.08,2.82,3.09,1.88,5.46,4.5,7.12,7.86,1.29,2.61,2.04,5.59,2.27,8.93h-43.02c.41-3.04,1.27-5.8,2.61-8.26,1.92-3.54,4.59-6.31,7.99-8.33Z"/><path class="cls-1" d="M1111.78,361.61c-.18-.28-.35-.55-.54-.82-2.42-3.45-5.53-6.13-9.33-8.06-3.81-1.92-8.12-2.89-12.96-2.89-5.91,0-11.21,1.46-15.91,4.37-4.7,2.91-8.44,6.85-11.21,11.82-2.78,4.97-4.16,10.59-4.16,16.85s1.39,11.73,4.16,16.65c2.77,4.92,6.53,8.84,11.28,11.75,4.74,2.91,10.07,4.36,15.98,4.36,4.83,0,9.13-.96,12.89-2.89,3.76-1.92,6.82-4.63,9.2-8.12.21-.31.41-.63.6-.95v10.62h9.54v-63.11h-9.54v10.42ZM1106.41,400.07c-3.94,4.39-9.22,6.58-15.85,6.58-4.39,0-8.33-1.03-11.82-3.09-3.49-2.06-6.25-4.88-8.26-8.46-2.02-3.58-3.02-7.7-3.02-12.36s1.01-8.77,3.02-12.35c2.01-3.58,4.74-6.4,8.19-8.46,3.44-2.06,7.36-3.09,11.75-3.09s8.23,1.01,11.55,3.02c3.31,2.01,5.86,4.81,7.66,8.39,1.79,3.58,2.69,7.74,2.69,12.49,0,7.16-1.97,12.94-5.91,17.32Z"/><path class="cls-1" d="M1209.14,387.44c0,5.82-1.52,10.48-4.57,13.97-3.05,3.49-7.21,5.24-12.49,5.24-3.4,0-6.4-.81-9-2.42-2.6-1.61-4.59-3.85-5.98-6.71-1.39-2.86-2.08-6.22-2.08-10.07v-36.26h-9.54v36.66c0,5.46,1.12,10.28,3.36,14.44,2.24,4.16,5.39,7.43,9.47,9.8,4.07,2.37,8.66,3.56,13.76,3.56s9.91-1.16,13.9-3.49c3.98-2.33,7.09-5.59,9.33-9.81,2.24-4.21,3.36-9.04,3.36-14.5v-36.66h-9.54v36.26Z"/><path class="cls-1" d="M128.79,199.76c5.95-7.55,8.94-16.53,8.94-26.94,0-9.23-2.48-17.16-7.43-23.79-4.95-6.63-11.63-11.88-20.02-15.74-8.39-3.86-18.04-6.13-28.95-6.8v-.5c8.22-1.51,15.77-4.16,22.66-7.93,6.88-3.78,12.38-8.69,16.5-14.73,4.11-6.04,6.17-13,6.17-20.9,0-13.43-5.41-23.88-16.24-31.35-10.83-7.47-26.65-11.21-47.47-11.21H0v183.31h61.44c16.11,0,29.88-2.02,41.29-6.04,11.41-4.03,20.1-9.82,26.06-17.37ZM86.62,55.61c7.05,7.81,10.57,17.75,10.57,29.84,0,7.72-1.51,14.73-4.53,21.02-3.02,6.29-7.38,11.25-13.09,14.86-5.71,3.61-12.43,5.41-20.15,5.41h-31.22V43.9h27.45c13.59,0,23.92,3.91,30.97,11.71ZM93.67,208.07c-8.73,7.39-22.24,11.08-40.54,11.08-4.53,0-9.53-.17-14.98-.5-4.75-.29-8.06-.71-9.95-1.26v-86.62h35.5c13.26,0,23.75,4.16,31.47,12.47,7.72,8.31,11.58,19.35,11.58,33.11s-4.37,24.34-13.09,31.72Z"/><path class="cls-1" d="M317.13,215.37c-12.51,2.18-24.55,3.27-36.13,3.27h-14.1v-88.63h10.83c12.75,0,23.62.63,32.61,1.89,8.98,1.26,15.65,2.89,20.02,4.91h.5v-17.12h-.5c-3.86,1.85-10.24,3.27-19.14,4.28-8.9,1.01-20.06,1.51-33.49,1.51h-10.83V44.4h13.34c11.25,0,22.62,1.05,34.12,3.15,11.5,2.1,22.79,5.25,33.87,9.44h.5l-3.27-17.12h-106.76v183.31h109.78l5.04-18.13h-.5c-11.42,4.7-23.38,8.14-35.88,10.32Z"/><path class="cls-1" d="M950.01,223.18h16.11c-3.69-18.97-5.54-45.66-5.54-80.07v-77.35l117.33,160.44h2.52v-106.26c0-34.41,1.84-61.1,5.54-80.07h-16.12c3.69,18.97,5.54,45.66,5.54,80.07v58.65l-99.71-138.72h-33.49v.76l13.35,18.25v84.23c0,34.41-1.85,61.1-5.54,80.07Z"/><path class="cls-1" d="M1344.18,80.67c-8.14-13.43-19.64-23.58-34.5-30.47-14.86-6.88-32.1-10.32-51.74-10.32h-64.96v183.31h60.18c20.98,0,39.28-3.69,54.89-11.08,15.61-7.38,27.57-18.09,35.88-32.1,8.31-14.02,12.47-30.76,12.47-50.23s-4.07-35.67-12.21-49.1ZM1317.49,178.74c-5.29,13.18-12.97,23.21-23.04,30.09-10.07,6.89-22.24,10.32-36.51,10.32-9.91,0-17.92-.21-24.05-.63-5.27-.36-9.5-.87-12.72-1.55V43.9h34.5c14.1,0,26.39,3.65,36.89,10.95,10.49,7.3,18.59,17.46,24.29,30.47,5.7,13.01,8.56,28.16,8.56,45.45,0,18.8-2.64,34.79-7.93,47.97Z"/><path class="cls-1" d="M757.31,7.8c-32.85-10.81-69.38-10.39-102.06,1.31-60.29,20.64-106.08,69.65-134.79,125.14l-52.89-94.38h-32.23l59.93,105.05v78.25h28.2v-80.79c1.34-2.58,2.7-5.14,4.1-7.69l3.08-5.47c12.96-22.57,28.5-43.65,47.17-61.65,56.32-56.71,146.87-80.87,214.3-29.43,2.47,1.86,4.87,3.82,7.23,5.82,8.41,8.03,16.15,18.62,20.11,27.76,4.2,9.71,5.92,21.36,5.92,34.62,0,18.63-2.94,36.85-8.82,54.64-5.88,17.79-14.31,32.44-25.3,43.94-11,11.5-23.71,17.25-38.15,17.25-10.41,0-19.38-2.68-26.94-8.06-7.55-5.37-13.3-12.97-17.25-22.79-3.95-9.82-5.92-21.36-5.92-34.62,0-18.47,2.98-36.68,8.94-54.64,5.95-17.96,14.43-32.65,25.43-44.06,6.59-6.84,13.81-11.59,21.64-14.33,0,0,4.63-1.78,15.08-3.26,4.61-.65-1.86-4.04-15.08-2.29-12.91,2.03-24.91,6.52-35.99,13.58-15.53,9.91-27.65,23.29-36.38,40.16-8.73,16.87-13.09,35.38-13.09,55.52,0,15.78,3.36,29.63,10.07,41.55,6.71,11.92,16.11,21.11,28.2,27.57,12.09,6.46,25.85,9.69,41.29,9.69,19.3,0,36.72-5.04,52.25-15.11,15.52-10.07,27.7-23.54,36.51-40.41,8.81-16.87,13.22-35.21,13.22-55.02,0-15.95-6.24-34.17-13.59-45.67-14.04-21.98-41.5-48.9-84.18-62.19Z"/></g></svg>