<?xml version="1.0" encoding="UTF-8"?><svg id="Layer_2" xmlns="http://www.w3.org/2000/svg" viewBox="0 0 419.74 226.2"><defs><style>.cls-1{fill:#888280;}</style></defs><g id="Layer_1-2"><path class="cls-1" d="M406.15,69.99c-14.04-21.98-41.5-48.9-84.19-62.19-32.85-10.81-69.37-10.39-102.06,1.31-60.29,20.64-106.08,69.65-134.79,125.14L32.23,39.87H0l59.93,105.05v78.25h28.2v-80.79c1.34-2.58,2.7-5.14,4.1-7.69l3.08-5.48c12.96-22.57,28.5-43.65,47.17-61.65,56.32-56.71,146.87-80.87,214.3-29.43,2.47,1.86,4.87,3.82,7.23,5.82,8.41,8.03,16.15,18.61,20.11,27.76,4.2,9.71,5.92,21.36,5.92,34.62,0,18.63-2.94,36.85-8.82,54.64-5.88,17.79-14.31,32.44-25.3,43.94-11,11.5-23.71,17.25-38.15,17.25-10.41,0-19.38-2.68-26.94-8.06-7.55-5.37-13.3-12.97-17.25-22.79-3.95-9.82-5.92-21.36-5.92-34.62,0-18.47,2.98-36.68,8.94-54.64,5.95-17.96,14.43-32.65,25.43-44.06,6.59-6.84,13.81-11.59,21.64-14.33,0,0,4.63-1.78,15.08-3.26,4.61-.65-1.86-4.04-15.08-2.29-12.91,2.03-24.91,6.52-35.99,13.58-15.53,9.91-27.65,23.29-36.38,40.16-8.73,16.87-13.09,35.38-13.09,55.52,0,15.78,3.36,29.63,10.07,41.55,6.71,11.92,16.11,21.11,28.2,27.57s25.85,9.69,41.29,9.69c19.3,0,36.72-5.04,52.25-15.11,15.52-10.07,27.7-23.54,36.51-40.41,8.81-16.87,13.22-35.21,13.22-55.02,0-15.95-6.24-34.17-13.59-45.67Z"/></g></svg>